<?xml version="1.0" encoding="utf-8"?>
<!-- Generator: Adobe Illustrator 23.1.0, SVG Export Plug-In . SVG Version: 6.00 Build 0)  -->
<svg version="1.1" id="Layer_1" xmlns="http://www.w3.org/2000/svg" xmlns:xlink="http://www.w3.org/1999/xlink" x="0px" y="0px"
	 viewBox="0 0 115.4 122.9" style="enable-background:new 0 0 115.4 122.9;" xml:space="preserve">
<style type="text/css">
	.st0{fill:#E84B4A;}
	.st1{fill:#E31F1C;}
</style>
<g>
	<g>
		<g>
			<path class="st0" d="M82.2,0.8c-6.1-1.2-12.2-1-17.9,0.4c-2.3,0.5-4.5,1.3-6.6,2.3c-7,3-13,8-17.4,14.3c-1.1,1.6-2.2,3.4-3.1,5.2
				c-1.5,3.2-2.7,6.6-3.4,10.2c-1.2,6.1,0,15.4,2.5,25.9c1.2,0.3,2.5,0.4,3.7,0.4c0.2,0,0.4,0,0.6,0c5.8-0.2,10.9-3,14.1-7.4
				c-1.9-3.5-2.9-7.5-2.7-11.7c0.1-3.7,1.1-7.2,2.7-10.2c0.8-1.5,1.8-3,2.9-4.3c4.2-4.9,10.5-8,17.4-8c0.3,0,0.7,0,1,0
				c1.9,0.1,3.6,0.3,5.4,0.8C91.7,21.4,99,30.9,98.7,41.9c-0.3,9.8-6.7,18-15.4,21.2c-4.5,18.5-12.2,39.2-17.1,51.5
				c14.9-15.5,45.1-48.6,48.4-65.4C119,26.9,104.5,5.2,82.2,0.8z"/>
		</g>
		<path class="st1" d="M79.1,59.1c2.4-10.5,3.7-19.8,2.5-25.9c-0.7-3.6-1.9-7-3.4-10.2c-0.7-0.1-1.5-0.2-2.2-0.2c-0.2,0-0.4,0-0.6,0
			c-6,0-11.4,2.9-14.7,7.4c1.6,3,2.6,6.5,2.7,10.2c0.1,4.2-0.9,8.2-2.7,11.7c-0.8,1.5-1.8,3-2.9,4.3c-4.1,4.8-10.1,7.8-16.9,8.1
			c-1.1,0-2.2,0-3.2-0.1c-1.9-0.2-3.8-0.6-5.5-1.3c-8.7-3.1-15-11.3-15.4-21.2c-0.4-11,7-20.5,17.2-23.3C38,11.3,44,5.3,51.1,1.2
			c-5.7-1.4-11.8-1.6-17.9-0.4C10.9,5.2-3.6,26.9,0.8,49.2c3.3,16.7,33.5,49.9,48.4,65.4c4.9,5.2,8.2,8.4,8.2,8.4s0.1-0.3,0.3-0.7
			c2-4.9,13.7-33.2,20.1-57.9C78.3,62.6,78.7,60.8,79.1,59.1z"/>
	</g>
</g>
</svg>
